<?xml version="1.0" encoding="utf-8"?>
<!-- Generator: Adobe Illustrator 25.4.1, SVG Export Plug-In . SVG Version: 6.00 Build 0)  -->
<svg version="1.1" id="Layer_1" xmlns="http://www.w3.org/2000/svg" xmlns:xlink="http://www.w3.org/1999/xlink" x="0px" y="0px"
	 viewBox="0 0 24 24" style="enable-background:new 0 0 24 24;" xml:space="preserve">
<style type="text/css">
	.st0{fill:#333333;}
</style>
<path id="hide-text" class="st0" d="M6.62,24v-0.65c1.01,0.04,2.01-0.22,2.87-0.76c0.5-0.89,0.7-1.92,0.57-2.94v-2.9H0.92v-1.81
	h9.14V1.51H8.04c-1.42-0.14-2.86,0.16-4.1,0.87C2.99,3.43,2.42,4.76,2.31,6.17H1.42L1.63,0h20.5l0.2,6.17h-0.88
	c-0.17-1.39-0.74-2.7-1.62-3.78c-1.25-0.73-2.7-1.04-4.14-0.88h-2.02v13.42h9.4v1.81h-9.4v3.32c0,1.41,0.22,2.28,0.66,2.61
	c0.89,0.45,1.87,0.68,2.87,0.66V24H6.62z"/>
</svg>
