<?xml version="1.0" encoding="utf-8"?>
<!-- Generator: Adobe Illustrator 25.4.1, SVG Export Plug-In . SVG Version: 6.00 Build 0)  -->
<svg version="1.1" id="Layer_1" xmlns="http://www.w3.org/2000/svg" xmlns:xlink="http://www.w3.org/1999/xlink" x="0px" y="0px"
	 viewBox="0 0 24 24" style="enable-background:new 0 0 24 24;" xml:space="preserve">
<style type="text/css">
	.st0{fill:#333333;}
</style>
<path id="show-text" class="st0" d="M1.76,0h20.5l0.19,6.17h-0.87c-0.17-1.39-0.73-2.7-1.62-3.78c-1.25-0.73-2.7-1.04-4.14-0.88
	H13.8v18.56c0,1.41,0.22,2.28,0.65,2.61c0.89,0.46,1.87,0.68,2.87,0.66V24H6.75v-0.65c1.01,0.04,2.01-0.22,2.87-0.76
	c0.5-0.89,0.7-1.92,0.57-2.94V1.51H8.17c-1.42-0.14-2.86,0.16-4.1,0.87C3.12,3.43,2.55,4.76,2.44,6.17H1.55L1.76,0z"/>
</svg>
